<?xml version="1.0" encoding="UTF-8"?>
<svg xmlns="http://www.w3.org/2000/svg" xmlns:xlink="http://www.w3.org/1999/xlink" width="px" height="100px" viewBox="0 0 113 100" version="1.1">
<g id="surface1">
<path style=" stroke:none;fill-rule:nonzero;fill:rgb(0%,0%,0%);fill-opacity:1;" d="M 33.625 15.894531 C 29.359375 17.183594 28.121094 19.371094 27.78125 26.203125 L 27.523438 31.144531 L 20.910156 31.355469 C 17.28125 31.484375 13.910156 31.785156 13.441406 31.957031 C 11.648438 32.730469 9.773438 34.449219 8.664062 36.425781 L 7.46875 38.445312 L 7.339844 59.921875 C 7.253906 71.734375 7.339844 82.429688 7.46875 83.632812 C 7.851562 86.898438 9.816406 89.648438 12.757812 91.152344 L 15.105469 92.355469 L 38.621094 92.355469 C 56.328125 92.355469 62.261719 92.226562 62.644531 91.839844 C 63.5 90.980469 63.242188 89.046875 62.21875 88.316406 C 61.363281 87.714844 58.421875 87.628906 38.535156 87.628906 C 22.914062 87.628906 15.492188 87.5 14.808594 87.15625 C 14.210938 86.898438 13.355469 85.953125 12.84375 85.050781 C 11.992188 83.460938 11.949219 82.945312 12.035156 72.507812 L 12.160156 61.640625 L 23.726562 61.511719 L 35.332031 61.425781 L 35.589844 62.371094 C 35.71875 62.929688 35.71875 65.464844 35.589844 68.085938 C 35.207031 74.957031 34.480469 74.484375 46.300781 74.65625 C 57.097656 74.785156 58.035156 74.613281 58.035156 72.207031 C 58.035156 69.972656 57.394531 69.800781 48.347656 69.671875 L 40.070312 69.5 L 40.199219 65.59375 L 40.328125 61.640625 L 51.164062 61.511719 C 58.546875 61.46875 62.21875 61.253906 62.601562 60.910156 C 63.542969 60.136719 63.113281 57.859375 61.875 57.257812 C 61.066406 56.828125 55.132812 56.699219 36.402344 56.699219 L 11.949219 56.699219 L 11.949219 48.582031 C 11.949219 44.113281 12.121094 39.992188 12.332031 39.433594 C 12.546875 38.875 13.230469 37.929688 13.867188 37.242188 L 15.0625 36.082031 L 81.078125 36.082031 L 82.402344 37.285156 C 83.597656 38.359375 83.8125 38.832031 83.9375 41.066406 C 84.195312 44.886719 84.410156 45.53125 85.644531 46.003906 C 86.457031 46.304688 86.96875 46.261719 87.738281 45.746094 C 88.632812 45.144531 88.761719 44.757812 88.761719 42.398438 C 88.761719 38.746094 88.121094 36.769531 86.328125 34.75 C 83.683594 31.828125 82.957031 31.613281 75.320312 31.355469 L 68.492188 31.144531 L 68.277344 25.6875 C 68.105469 21.089844 67.9375 20.058594 67.167969 19.070312 C 65.929688 17.355469 64.394531 16.324219 62.472656 15.894531 C 60.425781 15.378906 35.207031 15.421875 33.625 15.894531 Z M 62.472656 21.089844 C 63.582031 21.992188 63.625 22.078125 63.5 26.546875 L 63.371094 31.144531 L 32.644531 31.144531 L 32.515625 27.234375 C 32.390625 22.851562 32.816406 21.21875 34.222656 20.617188 C 34.777344 20.402344 41.09375 20.230469 48.265625 20.230469 C 60.894531 20.1875 61.363281 20.230469 62.472656 21.089844 Z M 62.472656 21.089844 "/>
<path style=" stroke:none;fill-rule:nonzero;fill:rgb(0%,0%,0%);fill-opacity:1;" d="M 78.945312 53.179688 C 69.472656 56.65625 63.796875 64.820312 63.839844 74.957031 C 63.925781 88.101562 74.296875 97.9375 87.480469 97.378906 C 94.136719 97.121094 99.34375 94.757812 103.441406 90.164062 C 112.617188 79.898438 110.695312 63.53125 99.429688 55.84375 C 93.582031 51.847656 85.476562 50.816406 78.945312 53.179688 Z M 90.597656 57.085938 C 94.691406 58.160156 95.800781 58.761719 98.660156 61.382812 C 104.722656 66.96875 106.214844 75.816406 102.375 83.417969 C 101.007812 86.082031 96.871094 90.035156 94.011719 91.410156 C 91.75 92.484375 91.109375 92.570312 86.414062 92.570312 C 81.378906 92.570312 81.25 92.527344 78.519531 91.066406 C 63.242188 82.773438 66.144531 60.609375 82.957031 56.914062 C 86.5 56.144531 86.882812 56.144531 90.597656 57.085938 Z M 90.597656 57.085938 "/>
<path style=" stroke:none;fill-rule:nonzero;fill:rgb(0%,0%,0%);fill-opacity:1;" d="M 84.492188 63.101562 C 84.28125 63.574219 84.066406 66.539062 84.066406 69.671875 C 84.066406 77.234375 83.9375 77.0625 89.828125 77.234375 C 95.035156 77.40625 96.441406 76.890625 96.441406 74.828125 C 96.441406 72.980469 95.71875 72.59375 92.347656 72.59375 C 89.957031 72.59375 89.230469 72.464844 89.015625 71.90625 C 88.890625 71.519531 88.761719 69.457031 88.761719 67.269531 C 88.761719 64.777344 88.589844 63.144531 88.25 62.800781 C 87.394531 61.941406 85.007812 62.15625 84.492188 63.101562 Z M 84.492188 63.101562 "/>
</g>
</svg>
