<?xml version="1.0" encoding="UTF-8"?>
<svg xmlns="http://www.w3.org/2000/svg" xmlns:xlink="http://www.w3.org/1999/xlink" width="px" height="100px" viewBox="0 0 86 99" version="1.1">
<g id="surface1">
<path style=" stroke:none;fill-rule:nonzero;fill:rgb(0%,0%,0%);fill-opacity:1;" d="M 38.394531 1.570312 C 34.503906 2.179688 28.871094 5.070312 25.800781 7.960938 C 16.484375 16.839844 16.023438 35.25 24.878906 44.632812 C 29.84375 49.855469 35.371094 52.238281 42.691406 52.238281 C 47.914062 52.238281 51.703125 51.273438 55.644531 48.992188 C 60.96875 45.898438 65.214844 40.167969 66.597656 34.132812 C 67.367188 30.683594 67.265625 22.0625 66.34375 18.765625 C 63.988281 9.992188 56.003906 3.042969 46.582031 1.523438 C 42.847656 0.964844 42.335938 0.964844 38.394531 1.570312 Z M 50.984375 8.773438 C 53.851562 10.195312 58.355469 14.351562 58.355469 15.519531 C 58.355469 16.027344 57.691406 16.230469 55.847656 16.230469 C 53.492188 16.230469 53.085938 16.027344 50.269531 13.441406 C 46.277344 9.789062 45.507812 9.789062 42.027344 13.746094 C 38.238281 18.003906 35.421875 19.273438 29.84375 19.273438 C 27.488281 19.273438 25.59375 19.171875 25.59375 19.019531 C 25.59375 18.003906 28.410156 13.644531 30.046875 12.121094 C 34.09375 8.316406 37.675781 7.050781 43.769531 7.253906 C 47.554688 7.40625 48.835938 7.660156 50.984375 8.773438 Z M 47.660156 19.070312 C 49.144531 20.84375 52.417969 21.960938 56.921875 22.214844 L 61.429688 22.46875 L 61.429688 26.625 C 61.429688 35.097656 58.203125 41.03125 51.703125 44.582031 C 48.476562 46.355469 48.222656 46.40625 43 46.40625 C 38.136719 46.40625 37.316406 46.253906 34.707031 44.984375 C 30.96875 43.160156 27.027344 38.949219 25.644531 35.25 C 25.082031 33.726562 24.519531 30.9375 24.46875 29.0625 L 24.316406 25.613281 L 29.691406 25.257812 C 36.34375 24.851562 40.03125 23.582031 43.359375 20.539062 C 46.070312 18.054688 46.632812 17.851562 47.660156 19.070312 Z M 47.660156 19.070312 "/>
<path style=" stroke:none;fill-rule:nonzero;fill:rgb(0%,0%,0%);fill-opacity:1;" d="M 36.089844 59.1875 C 34.453125 59.59375 33.785156 60.351562 33.785156 61.875 C 33.785156 63.597656 34.503906 64.207031 37.011719 64.664062 C 38.546875 64.96875 38.90625 65.222656 38.597656 65.882812 C 38.445312 66.339844 37.625 68.570312 36.855469 70.902344 C 36.089844 73.234375 35.269531 75.316406 35.015625 75.570312 C 34.707031 75.871094 33.121094 73.386719 30.96875 69.230469 C 28.71875 64.816406 27.183594 62.382812 26.671875 62.382812 C 25.082031 62.382812 20.375 63.851562 17.25 65.273438 C 7.472656 69.835938 0.359375 80.589844 0.257812 90.9375 C 0.257812 94.789062 0.308594 94.941406 1.945312 96.414062 L 3.632812 97.882812 L 43.308594 97.78125 L 83.03125 97.628906 L 84.257812 96.210938 C 86.5625 93.523438 85.691406 85.761719 82.3125 78.664062 C 80.164062 74.148438 73.765625 67.859375 69.003906 65.527344 C 64.703125 63.445312 59.074219 61.976562 58.253906 62.789062 C 57.949219 63.09375 56.257812 66.136719 54.570312 69.535156 C 52.828125 72.929688 51.242188 75.722656 50.933594 75.671875 C 50.523438 75.671875 47.09375 66.441406 47.09375 65.375 C 47.09375 65.171875 47.863281 64.867188 48.835938 64.714844 C 50.984375 64.308594 51.804688 63.347656 51.601562 61.519531 C 51.34375 59.339844 49.707031 58.832031 43 58.882812 C 39.773438 58.933594 36.652344 59.085938 36.089844 59.1875 Z M 30.152344 80.183594 C 33.273438 86.320312 35.832031 91.59375 35.832031 91.847656 C 35.832031 92.101562 29.691406 92.304688 20.988281 92.304688 C 8.496094 92.304688 6.039062 92.203125 5.835938 91.59375 C 5.683594 91.191406 6.039062 88.957031 6.605469 86.625 C 7.984375 81.351562 11.109375 76.53125 15.203125 73.285156 C 17.867188 71.257812 22.214844 69.078125 23.90625 69.027344 C 24.214844 68.976562 27.027344 73.996094 30.152344 80.183594 Z M 66.394531 70.597656 C 69.515625 72.019531 75.660156 78.054688 77.195312 81.25 C 78.679688 84.242188 80.164062 91.191406 79.5 91.847656 C 79.242188 92.101562 72.84375 92.253906 64.296875 92.203125 L 49.550781 92.050781 L 55.386719 80.488281 C 61.941406 67.402344 61.070312 68.164062 66.394531 70.597656 Z M 45.253906 77.953125 L 47.199219 83.835938 L 45.253906 87.84375 C 44.175781 90.023438 43.101562 91.796875 42.898438 91.796875 C 42.691406 91.796875 41.617188 90.023438 40.492188 87.84375 L 38.496094 83.835938 L 39.773438 80.082031 C 42.179688 73.03125 42.589844 72.019531 42.949219 72.019531 C 43.152344 72.019531 44.175781 74.65625 45.253906 77.953125 Z M 45.253906 77.953125 "/>
</g>
</svg>
