<?xml version="1.0" encoding="UTF-8"?>
<svg xmlns="http://www.w3.org/2000/svg" xmlns:xlink="http://www.w3.org/1999/xlink" width="px" height="100px" viewBox="0 0 100 100" version="1.1">
<g id="surface1">
<path style=" stroke:none;fill-rule:nonzero;fill:rgb(0%,0%,0%);fill-opacity:1;" d="M 70.46875 1.039062 C 69.0625 1.609375 68.4375 3.628906 69.21875 5.082031 C 69.84375 6.277344 72.136719 6.742188 78.019531 6.742188 C 80.363281 6.742188 82.292969 6.898438 82.292969 7.15625 C 82.292969 7.363281 76.355469 13.433594 69.0625 20.695312 L 55.832031 33.871094 L 50.15625 28.992188 C 38.644531 18.984375 35.574219 16.597656 34.21875 16.597656 C 33.28125 16.597656 30.207031 18.878906 23.332031 24.6875 C 11.824219 34.492188 9.375 36.773438 9.375 37.863281 C 9.375 38.847656 11.457031 40.976562 12.394531 40.976562 C 12.707031 40.976562 15.417969 38.953125 18.386719 36.410156 C 21.355469 33.921875 26.09375 29.980469 28.90625 27.59375 C 31.667969 25.257812 34.113281 23.339844 34.324219 23.339844 C 34.480469 23.339844 39.113281 27.179688 44.636719 31.847656 C 50.105469 36.515625 55.105469 40.507812 55.730469 40.714844 C 56.71875 41.027344 58.957031 39.003906 71.824219 26.246094 C 80 18.101562 86.925781 11.410156 87.136719 11.410156 C 87.34375 11.410156 87.5 14.054688 87.5 17.273438 C 87.5 23.808594 87.96875 25 90.3125 25 C 93.28125 25 93.488281 24.324219 93.488281 12.96875 C 93.488281 3.734375 93.386719 2.542969 92.550781 1.710938 C 91.71875 0.882812 90.46875 0.777344 81.613281 0.675781 C 76.09375 0.621094 71.09375 0.777344 70.46875 1.039062 Z M 70.46875 1.039062 "/>
<path style=" stroke:none;fill-rule:nonzero;fill:rgb(0%,0%,0%);fill-opacity:1;" d="M 6.613281 50.933594 C 4.011719 51.609375 1.25 54.410156 0.519531 57.054688 C 0.15625 58.453125 0 65.09375 0.105469 76.402344 C 0.261719 93.464844 0.261719 93.621094 1.511719 95.589844 C 2.136719 96.679688 3.59375 97.976562 4.738281 98.546875 C 6.667969 99.53125 7.96875 99.585938 49.738281 99.585938 C 97.34375 99.585938 95 99.742188 97.707031 96.160156 L 99.21875 94.242188 L 99.21875 56.171875 L 97.761719 54.304688 C 94.738281 50.3125 97.917969 50.570312 50.78125 50.46875 C 23.175781 50.414062 7.917969 50.570312 6.613281 50.933594 Z M 15.625 57.574219 C 15.625 60.996094 11.300781 65.457031 7.917969 65.558594 L 5.988281 65.613281 L 5.988281 61.824219 C 5.988281 57.003906 6.511719 56.535156 11.824219 56.535156 C 15.3125 56.535156 15.625 56.640625 15.625 57.574219 Z M 78.542969 59.542969 C 79.949219 66.339844 84.269531 70.175781 92.34375 71.835938 C 93.699219 72.09375 93.75 72.25 93.75 75.15625 L 93.75 78.214844 L 91.042969 78.839844 C 87.03125 79.667969 84.113281 81.222656 82.03125 83.660156 C 80.105469 85.890625 78.125 90.457031 78.125 92.582031 L 78.125 93.878906 L 49.894531 93.777344 L 21.71875 93.621094 L 21.144531 90.769531 C 20 85.21875 15.78125 80.601562 10.730469 79.355469 C 5.886719 78.164062 5.988281 78.269531 5.832031 75.46875 C 5.625 72.613281 6.457031 71.578125 8.800781 71.578125 C 10.78125 71.578125 15.15625 69.398438 17.082031 67.425781 C 19.167969 65.351562 20.625 62.605469 21.09375 59.90625 C 21.300781 58.765625 21.511719 57.519531 21.613281 57.15625 C 21.824219 56.691406 27.917969 56.535156 49.894531 56.535156 L 77.917969 56.535156 Z M 92.8125 57.417969 C 93.542969 58.089844 93.75 59.023438 93.75 62.085938 L 93.75 65.871094 L 92.292969 65.871094 C 88.800781 65.871094 84.375 61.410156 84.375 57.882812 C 84.375 56.535156 84.425781 56.535156 88.125 56.535156 C 90.832031 56.535156 92.082031 56.742188 92.8125 57.417969 Z M 9.738281 85.113281 C 11.824219 85.890625 13.542969 87.605469 14.636719 89.988281 C 16.355469 93.671875 16.199219 93.878906 11.511719 93.878906 C 8.4375 93.878906 7.238281 93.671875 6.71875 93.050781 C 5.988281 92.167969 5.417969 86.617188 5.9375 85.320312 C 6.25 84.386719 7.65625 84.335938 9.738281 85.113281 Z M 93.75 88.277344 C 93.75 93.359375 93.230469 93.878906 88.125 93.878906 L 84.21875 93.878906 L 84.53125 91.804688 C 84.6875 90.714844 85.261719 89.109375 85.886719 88.277344 C 87.082031 86.566406 90.730469 84.542969 92.605469 84.542969 C 93.699219 84.542969 93.75 84.75 93.75 88.277344 Z M 93.75 88.277344 "/>
<path style=" stroke:none;fill-rule:nonzero;fill:rgb(0%,0%,0%);fill-opacity:1;" d="M 45.050781 64.003906 C 40.78125 65.871094 37.5 70.746094 37.5 75.257812 C 37.5 78.269531 39.582031 82.46875 42.082031 84.542969 C 50.050781 91.128906 62.03125 85.425781 61.980469 75.105469 C 61.925781 70.332031 58.957031 65.921875 54.582031 64.109375 C 52.238281 63.121094 47.1875 63.070312 45.050781 64.003906 Z M 54.480469 70.851562 C 55.988281 72.457031 56.25 73.027344 56.25 75.3125 C 56.25 77.59375 56.042969 78.113281 54.480469 79.667969 C 52.96875 81.171875 52.34375 81.429688 50.261719 81.429688 C 45.832031 81.429688 43.75 79.511719 43.800781 75.46875 C 43.800781 70.953125 45.675781 69.035156 50.207031 68.984375 C 52.449219 68.984375 52.917969 69.191406 54.480469 70.851562 Z M 54.480469 70.851562 "/>
</g>
</svg>
