<?xml version="1.0" encoding="UTF-8"?>
<svg xmlns="http://www.w3.org/2000/svg" xmlns:xlink="http://www.w3.org/1999/xlink" width="px" height="100px" viewBox="0 0 100 100" version="1.1">
<g id="surface1">
<path style=" stroke:none;fill-rule:nonzero;fill:rgb(0%,0%,0%);fill-opacity:1;" d="M 87.324219 0 L 12.324219 0 C 5.441406 0 -0.175781 5.617188 -0.175781 12.324219 L -0.175781 68.398438 C -0.175781 75.285156 5.441406 80.722656 12.324219 80.722656 L 31.074219 80.722656 L 31.074219 97.125 C 31.074219 99.046875 33.226562 100.164062 34.808594 99.019531 L 59.203125 80.722656 L 87.328125 80.722656 C 94.210938 80.722656 99.828125 75.109375 99.828125 68.398438 L 99.828125 12.324219 C 99.824219 5.617188 94.375 0 87.324219 0 Z M 90.625 68.75 C 90.625 70.460938 89.210938 71.875 87.5 71.875 L 56.25 71.875 L 40.625 83.59375 L 40.625 71.875 L 12.5 71.875 C 10.789062 71.875 9.375 70.460938 9.375 68.75 L 9.375 12.5 C 9.375 10.789062 10.789062 9.375 12.5 9.375 L 87.5 9.375 C 89.210938 9.375 90.625 10.789062 90.625 12.5 Z M 90.625 68.75 "/>
</g>
</svg>
